<?xml version="1.0" encoding="utf-8"?>
<svg version="1.1" id="Capa_1" xmlns="http://www.w3.org/2000/svg" xmlns:xlink="http://www.w3.org/1999/xlink" x="0px" y="0px"
	 width="25px" height="25px" viewBox="0 0 25 25" enable-background="new 0 0 25 25" xml:space="preserve">
<g>
	<path fill="#0098DD" d="M23.077,17.684l-2.681-1.549l2.264-1.348c0.364-0.175,0.477-0.664,0.27-1.023
		c-0.211-0.368-0.665-0.446-1.011-0.244l-3.018,1.768l-4.797-2.791L18.9,9.734l3.018,1.765c0.094,0.069,0.216,0.109,0.35,0.109
		c0.256,0,0.485-0.121,0.66-0.351c0.202-0.365,0.094-0.848-0.27-1.023l-2.264-1.348l2.681-1.549c0.349-0.201,0.47-0.653,0.27-1.023
		c-0.191-0.356-0.664-0.48-1.024-0.27l-2.695,1.564l-0.04-2.696c-0.006-0.417-0.323-0.753-0.741-0.753
		c-0.418,0-0.744,0.362-0.741,0.753l0.027,3.558l-4.769,2.762V5.626l3.005-1.713c0.351-0.198,0.504-0.661,0.296-1.023
		c-0.21-0.368-0.642-0.477-1.011-0.27l-2.29,1.293V0.855c0-0.417-0.337-0.753-0.755-0.753c-0.418,0-0.741,0.336-0.741,0.753v3.087
		L9.496,2.62c-0.369-0.204-0.79-0.089-0.997,0.27c-0.21,0.368-0.08,0.819,0.283,1.023l3.086,1.739v5.55L6.99,8.389l0.027-3.478
		c0.041-0.391-0.31-0.753-0.728-0.753H6.262c-0.391,0-0.737,0.336-0.741,0.753L5.494,7.526L2.867,6.017
		C2.5,5.804,2.048,5.931,1.857,6.285c-0.2,0.374-0.097,0.813,0.27,1.026L4.78,8.846l-2.318,1.388
		c-0.364,0.175-0.477,0.664-0.256,1.023c0.143,0.233,0.35,0.351,0.633,0.351c0.148,0,0.271-0.037,0.391-0.109l3.032-1.791
		l4.864,2.788l-4.864,2.817l-3.032-1.794c-0.364-0.213-0.833-0.112-1.024,0.244c-0.2,0.371-0.091,0.816,0.256,1.023l2.318,1.374
		L2.126,17.71c-0.365,0.213-0.484,0.661-0.27,1.026c0.15,0.253,0.35,0.377,0.633,0.377c0.067,0,0.202-0.04,0.377-0.109l2.627-1.509
		l0.027,2.616c0.004,0.417,0.35,0.739,0.741,0.739h0.027c0.418,0,0.731-0.348,0.728-0.767L6.99,16.606l4.878-2.788v5.522
		l-3.086,1.739c-0.368,0.207-0.497,0.658-0.283,1.023c0.15,0.256,0.35,0.379,0.633,0.379c0.135,0,0.259-0.023,0.364-0.083
		l2.371-1.345v3.139c0,0.417,0.323,0.742,0.741,0.742c0.418,0,0.755-0.325,0.755-0.742v-3.087l2.29,1.294
		c0.105,0.06,0.229,0.083,0.35,0.083c0.296,0,0.515-0.121,0.66-0.379c0.205-0.362,0.072-0.816-0.296-1.023l-3.005-1.684V13.79
		l4.769,2.762l-0.027,3.53c-0.003,0.42,0.323,0.767,0.741,0.767c0.418,0,0.735-0.322,0.741-0.739l0.04-2.711l2.695,1.578
		c0.104,0.06,0.243,0.08,0.391,0.08c0.283,0,0.49-0.118,0.633-0.351C23.568,18.348,23.427,17.886,23.077,17.684z"/>
</g>
</svg>
