<?xml version="1.0" encoding="utf-8"?>
<!-- Generator: Adobe Illustrator 17.0.0, SVG Export Plug-In . SVG Version: 6.00 Build 0)  -->
<!DOCTYPE svg PUBLIC "-//W3C//DTD SVG 1.1//EN" "http://www.w3.org/Graphics/SVG/1.1/DTD/svg11.dtd">
<svg version="1.1" id="Слой_1" xmlns="http://www.w3.org/2000/svg" xmlns:xlink="http://www.w3.org/1999/xlink" x="0px" y="0px"
	 width="197.875px" height="16.359px" viewBox="0 0 197.875 16.359" enable-background="new 0 0 197.875 16.359"
	 xml:space="preserve">
<path fill="#ED1F24" d="M176.942,5.687l-4.767-0.438c-0.301-0.028-0.56-0.213-0.683-0.492l-1.707-4.026
	c-0.273-0.664-1.243-0.664-1.516,0l-1.694,4.026c-0.109,0.28-0.382,0.465-0.683,0.492l-4.767,0.438
	c-0.71,0.067-0.997,0.931-0.464,1.395l3.592,3.07c0.232,0.199,0.328,0.492,0.26,0.784l-1.079,4.306
	c-0.164,0.678,0.587,1.236,1.216,0.877l3.975-2.272c0.259-0.147,0.574-0.147,0.833,0l3.975,2.272
	c0.628,0.359,1.38-0.186,1.216-0.877l-1.065-4.306c-0.068-0.292,0.027-0.585,0.26-0.784l3.592-3.07
	C177.952,6.618,177.652,5.754,176.942,5.687z"/>
<path fill="#ED1F24" d="M156.965,5.687l-4.767-0.438c-0.301-0.027-0.56-0.213-0.683-0.492l-1.707-4.026
	c-0.273-0.664-1.243-0.664-1.516,0l-1.694,4.026c-0.109,0.28-0.382,0.465-0.683,0.492l-4.767,0.438
	c-0.71,0.067-0.997,0.931-0.464,1.395l3.592,3.07c0.232,0.199,0.328,0.492,0.259,0.784l-1.079,4.306
	c-0.164,0.678,0.587,1.236,1.216,0.877l3.975-2.272c0.26-0.147,0.574-0.147,0.833,0l3.975,2.272c0.628,0.359,1.38-0.186,1.216-0.877
	l-1.065-4.306c-0.068-0.292,0.027-0.585,0.259-0.784l3.592-3.07C157.976,6.617,157.676,5.754,156.965,5.687z"/>
<path fill="#ED1F24" d="M197.043,5.688l-4.767-0.438c-0.301-0.028-0.56-0.213-0.683-0.493l-1.707-4.026
	c-0.273-0.665-1.243-0.665-1.516,0l-1.694,4.026c-0.109,0.28-0.382,0.465-0.683,0.493l-4.767,0.438
	c-0.71,0.067-0.997,0.931-0.464,1.395l3.592,3.07c0.232,0.199,0.328,0.492,0.259,0.784l-1.079,4.306
	c-0.164,0.678,0.587,1.236,1.216,0.877l3.975-2.272c0.26-0.147,0.574-0.147,0.833,0l3.975,2.272c0.628,0.359,1.38-0.186,1.216-0.877
	l-1.065-4.306c-0.068-0.292,0.027-0.585,0.26-0.784l3.592-3.07C198.053,6.618,197.753,5.754,197.043,5.688z"/>
<path fill="#ED1F24" d="M116.98,5.687l-4.767-0.438c-0.301-0.028-0.56-0.213-0.683-0.493l-1.707-4.026
	c-0.273-0.664-1.243-0.664-1.516,0l-1.694,4.026c-0.109,0.28-0.382,0.465-0.683,0.493l-4.767,0.438
	c-0.71,0.067-0.997,0.93-0.464,1.395l3.592,3.07c0.232,0.199,0.328,0.492,0.259,0.784l-1.079,4.306
	c-0.164,0.678,0.587,1.236,1.216,0.877l3.975-2.272c0.259-0.147,0.574-0.147,0.833,0l3.975,2.272
	c0.628,0.359,1.38-0.186,1.216-0.877l-1.065-4.306c-0.068-0.292,0.027-0.585,0.259-0.784l3.592-3.07
	C117.991,6.617,117.69,5.753,116.98,5.687z"/>
<path fill="#CCCCCC" d="M97.004,5.686l-4.767-0.438c-0.301-0.028-0.56-0.213-0.683-0.493l-1.707-4.026
	c-0.273-0.664-1.243-0.664-1.516,0l-1.694,4.026c-0.109,0.28-0.382,0.465-0.683,0.493l-4.767,0.438
	c-0.71,0.067-0.997,0.931-0.464,1.395l3.592,3.07c0.232,0.199,0.328,0.492,0.26,0.784l-1.079,4.306
	c-0.164,0.678,0.587,1.236,1.216,0.877l3.975-2.272c0.259-0.147,0.574-0.147,0.833,0l3.975,2.272
	c0.628,0.359,1.38-0.186,1.216-0.877l-1.065-4.306c-0.068-0.292,0.027-0.585,0.259-0.784l3.592-3.07
	C98.015,6.617,97.714,5.753,97.004,5.686z"/>
<path fill="#ED1F24" d="M137.081,5.687l-4.767-0.438c-0.301-0.028-0.56-0.213-0.683-0.493l-1.707-4.026
	c-0.273-0.665-1.243-0.665-1.516,0l-1.694,4.026c-0.109,0.28-0.382,0.465-0.683,0.493l-4.767,0.438
	c-0.71,0.067-0.997,0.931-0.464,1.395l3.592,3.07c0.232,0.199,0.328,0.492,0.26,0.784l-1.079,4.306
	c-0.164,0.678,0.587,1.236,1.216,0.877l3.975-2.272c0.26-0.147,0.574-0.147,0.833,0l3.975,2.272c0.628,0.359,1.38-0.186,1.216-0.877
	l-1.065-4.306c-0.068-0.292,0.027-0.585,0.26-0.784l3.592-3.07C138.092,6.618,137.791,5.754,137.081,5.687z"/>
<path fill="#CCCCCC" d="M76.715,5.686l-4.767-0.438c-0.301-0.027-0.56-0.213-0.683-0.492l-1.707-4.026
	c-0.273-0.664-1.243-0.664-1.516,0l-1.694,4.026c-0.109,0.28-0.382,0.465-0.683,0.492l-4.767,0.438
	c-0.71,0.067-0.997,0.931-0.464,1.395l3.592,3.07c0.232,0.199,0.328,0.492,0.259,0.784l-1.079,4.306
	c-0.164,0.678,0.587,1.236,1.216,0.877l3.975-2.272c0.26-0.147,0.574-0.147,0.833,0l3.975,2.272c0.628,0.359,1.38-0.186,1.216-0.877
	l-1.065-4.306c-0.068-0.292,0.027-0.585,0.259-0.784l3.592-3.07C77.726,6.616,77.426,5.753,76.715,5.686z"/>
<path fill="#CCCCCC" d="M36.73,5.686l-4.767-0.438c-0.301-0.027-0.56-0.213-0.683-0.492l-1.707-4.026
	c-0.273-0.664-1.243-0.664-1.516,0l-1.694,4.026c-0.109,0.28-0.382,0.465-0.683,0.492l-4.767,0.438
	c-0.71,0.067-0.997,0.93-0.464,1.395l3.592,3.07c0.232,0.199,0.328,0.492,0.26,0.784l-1.079,4.306
	c-0.164,0.678,0.587,1.236,1.216,0.877l3.975-2.272c0.26-0.147,0.574-0.147,0.833,0l3.975,2.272c0.628,0.359,1.38-0.186,1.216-0.877
	l-1.065-4.306c-0.068-0.292,0.027-0.585,0.259-0.784l3.592-3.07C37.741,6.616,37.44,5.752,36.73,5.686z"/>
<path fill="#CCCCCC" d="M16.754,5.685l-4.767-0.438c-0.301-0.028-0.56-0.213-0.683-0.493L9.597,0.728
	c-0.273-0.664-1.243-0.664-1.516,0L6.387,4.755C6.277,5.034,6.004,5.22,5.704,5.247L0.937,5.685C0.227,5.752-0.06,6.616,0.472,7.081
	l3.592,3.07c0.232,0.199,0.328,0.492,0.26,0.784l-1.079,4.306c-0.164,0.678,0.587,1.236,1.216,0.877l3.975-2.272
	c0.259-0.147,0.574-0.147,0.833,0l3.975,2.272c0.628,0.359,1.38-0.186,1.216-0.877l-1.065-4.306
	c-0.068-0.292,0.027-0.585,0.26-0.784l3.592-3.07C17.765,6.616,17.464,5.752,16.754,5.685z"/>
<path fill="#CCCCCC" d="M56.831,5.686l-4.767-0.438c-0.301-0.028-0.56-0.213-0.683-0.493l-1.707-4.026
	c-0.273-0.665-1.243-0.665-1.516,0l-1.694,4.026c-0.109,0.28-0.382,0.465-0.683,0.493l-4.767,0.438
	c-0.71,0.067-0.997,0.931-0.464,1.395l3.592,3.07c0.232,0.199,0.328,0.492,0.26,0.784l-1.079,4.306
	c-0.164,0.678,0.587,1.236,1.216,0.877l3.975-2.272c0.26-0.147,0.574-0.147,0.833,0l3.975,2.272c0.628,0.359,1.38-0.186,1.216-0.877
	l-1.065-4.306c-0.068-0.292,0.027-0.585,0.26-0.784l3.592-3.07C57.842,6.617,57.541,5.753,56.831,5.686z"/>
</svg>
